<mxfile host="app.diagrams.net" agent="Mozilla/5.0 (Windows NT 10.0; Win64; x64; rv:139.0) Gecko/20100101 Firefox/139.0" version="27.1.6">
  <diagram name="Page-1" id="eXgGNfB-tsyejlYZuynw">
    <mxGraphModel dx="1042" dy="660" grid="1" gridSize="10" guides="1" tooltips="1" connect="1" arrows="1" fold="1" page="1" pageScale="1" pageWidth="850" pageHeight="1100" math="0" shadow="0">
      <root>
        <mxCell id="0" />
        <mxCell id="1" parent="0" />
        <mxCell id="ZIuYkbhkleZG0xT6XgGq-6" style="edgeStyle=orthogonalEdgeStyle;rounded=0;orthogonalLoop=1;jettySize=auto;html=1;entryX=0;entryY=0.5;entryDx=0;entryDy=0;" edge="1" parent="1" source="ZIuYkbhkleZG0xT6XgGq-1" target="ZIuYkbhkleZG0xT6XgGq-2">
          <mxGeometry relative="1" as="geometry" />
        </mxCell>
        <mxCell id="ZIuYkbhkleZG0xT6XgGq-1" value="1 - On" style="triangle;whiteSpace=wrap;html=1;" vertex="1" parent="1">
          <mxGeometry x="280" y="120" width="60" height="80" as="geometry" />
        </mxCell>
        <mxCell id="ZIuYkbhkleZG0xT6XgGq-15" style="edgeStyle=orthogonalEdgeStyle;rounded=0;orthogonalLoop=1;jettySize=auto;html=1;" edge="1" parent="1" source="ZIuYkbhkleZG0xT6XgGq-2" target="ZIuYkbhkleZG0xT6XgGq-13">
          <mxGeometry relative="1" as="geometry" />
        </mxCell>
        <mxCell id="ZIuYkbhkleZG0xT6XgGq-2" value="&lt;font style=&quot;font-size: 35px;&quot;&gt;+&lt;/font&gt;" style="ellipse;whiteSpace=wrap;html=1;aspect=fixed;" vertex="1" parent="1">
          <mxGeometry x="490" y="130" width="60" height="60" as="geometry" />
        </mxCell>
        <mxCell id="ZIuYkbhkleZG0xT6XgGq-5" style="edgeStyle=orthogonalEdgeStyle;rounded=0;orthogonalLoop=1;jettySize=auto;html=1;entryX=0;entryY=0.5;entryDx=0;entryDy=0;" edge="1" parent="1" source="ZIuYkbhkleZG0xT6XgGq-3" target="ZIuYkbhkleZG0xT6XgGq-4">
          <mxGeometry relative="1" as="geometry" />
        </mxCell>
        <mxCell id="ZIuYkbhkleZG0xT6XgGq-3" value="FX" style="rounded=0;whiteSpace=wrap;html=1;" vertex="1" parent="1">
          <mxGeometry x="275" y="260" width="70" height="50" as="geometry" />
        </mxCell>
        <mxCell id="ZIuYkbhkleZG0xT6XgGq-4" value="On" style="triangle;whiteSpace=wrap;html=1;" vertex="1" parent="1">
          <mxGeometry x="410" y="245" width="60" height="80" as="geometry" />
        </mxCell>
        <mxCell id="ZIuYkbhkleZG0xT6XgGq-8" style="edgeStyle=orthogonalEdgeStyle;rounded=0;orthogonalLoop=1;jettySize=auto;html=1;entryX=0;entryY=0.5;entryDx=0;entryDy=0;" edge="1" parent="1" source="ZIuYkbhkleZG0xT6XgGq-7" target="ZIuYkbhkleZG0xT6XgGq-1">
          <mxGeometry relative="1" as="geometry">
            <Array as="points">
              <mxPoint x="220" y="160" />
              <mxPoint x="220" y="160" />
            </Array>
          </mxGeometry>
        </mxCell>
        <mxCell id="ZIuYkbhkleZG0xT6XgGq-7" value="x[n]" style="text;html=1;align=center;verticalAlign=middle;whiteSpace=wrap;rounded=0;" vertex="1" parent="1">
          <mxGeometry x="110" y="145" width="60" height="30" as="geometry" />
        </mxCell>
        <mxCell id="ZIuYkbhkleZG0xT6XgGq-9" value="" style="endArrow=classic;html=1;rounded=0;entryX=0;entryY=0.5;entryDx=0;entryDy=0;" edge="1" parent="1" target="ZIuYkbhkleZG0xT6XgGq-3">
          <mxGeometry width="50" height="50" relative="1" as="geometry">
            <mxPoint x="200" y="160" as="sourcePoint" />
            <mxPoint x="190" y="230" as="targetPoint" />
            <Array as="points">
              <mxPoint x="200" y="285" />
            </Array>
          </mxGeometry>
        </mxCell>
        <mxCell id="ZIuYkbhkleZG0xT6XgGq-11" value="" style="endArrow=classic;html=1;rounded=0;exitX=1;exitY=0.5;exitDx=0;exitDy=0;entryX=0.5;entryY=1;entryDx=0;entryDy=0;" edge="1" parent="1" source="ZIuYkbhkleZG0xT6XgGq-4" target="ZIuYkbhkleZG0xT6XgGq-2">
          <mxGeometry width="50" height="50" relative="1" as="geometry">
            <mxPoint x="490" y="300" as="sourcePoint" />
            <mxPoint x="520" y="200" as="targetPoint" />
            <Array as="points">
              <mxPoint x="520" y="285" />
            </Array>
          </mxGeometry>
        </mxCell>
        <mxCell id="ZIuYkbhkleZG0xT6XgGq-13" value="y[n]" style="text;html=1;align=center;verticalAlign=middle;whiteSpace=wrap;rounded=0;" vertex="1" parent="1">
          <mxGeometry x="590" y="145" width="60" height="30" as="geometry" />
        </mxCell>
      </root>
    </mxGraphModel>
  </diagram>
</mxfile>
